<?xml version="1.0" standalone="no"?>
<!DOCTYPE svg PUBLIC "-//W3C//DTD SVG 20010904//EN"
 "http://www.w3.org/TR/2001/REC-SVG-20010904/DTD/svg10.dtd">
<svg version="1.0" xmlns="http://www.w3.org/2000/svg"
 width="489.000000pt" height="440.000000pt" viewBox="0 0 489.000000 440.000000"
 preserveAspectRatio="xMidYMid meet">

<g transform="translate(0.000000,440.000000) scale(0.100000,-0.100000)"
fill="#000000" stroke="none">
<path d="M1930 3789 c0 -5 -4 -8 -9 -4 -5 3 -15 0 -23 -7 -7 -7 -25 -19 -40
-27 -16 -8 -26 -17 -23 -19 2 -3 -4 -12 -14 -21 -31 -27 -38 -53 -40 -138 -2
-85 11 -130 50 -164 10 -9 16 -19 12 -23 -3 -3 1 -6 11 -6 9 0 14 -4 11 -10
-3 -5 1 -10 9 -10 9 0 16 -3 16 -7 0 -11 50 -33 73 -33 10 0 26 4 36 10 17 9
18 25 16 197 -2 103 -8 199 -13 213 -5 14 -8 33 -7 43 3 13 -4 17 -31 17 -19
0 -34 -5 -34 -11z"/>
<path d="M1890 3070 c0 -5 -7 -10 -15 -10 -27 0 -174 -138 -180 -169 -2 -11
-9 -29 -15 -40 -6 -12 -9 -21 -7 -21 3 0 1 -19 -4 -42 -4 -24 -8 -342 -9 -708
0 -731 -9 -882 -59 -986 -10 -21 -22 -55 -26 -74 -4 -19 -13 -48 -20 -65 -40
-89 -62 -180 -72 -290 -5 -64 16 -125 44 -125 7 0 13 -4 13 -10 0 -14 131 -13
162 2 14 7 36 27 48 45 29 42 95 208 119 298 11 39 28 94 39 123 11 28 18 52
16 52 -3 0 1 10 7 22 23 44 38 135 39 238 0 125 18 177 59 172 38 -6 52 -28
63 -100 6 -37 18 -101 28 -142 10 -41 23 -106 30 -145 7 -38 19 -88 27 -110
15 -39 19 -64 43 -245 6 -47 12 -94 14 -105 7 -36 29 -75 43 -75 7 0 13 -4 13
-10 0 -5 11 -10 25 -10 14 0 25 -4 25 -10 0 -5 12 -10 26 -10 14 0 23 4 19 10
-3 6 -1 10 4 10 6 0 11 -4 11 -10 0 -5 9 -10 21 -10 11 0 17 5 14 10 -3 6 1
10 10 10 9 0 24 7 33 16 23 24 28 181 8 279 -9 43 -16 116 -16 164 0 48 -4 91
-10 97 -5 5 -16 53 -24 106 -8 54 -17 102 -21 108 -4 6 -7 36 -6 66 0 30 -4
67 -10 82 -13 34 -17 64 -26 182 -3 52 -10 98 -15 101 -5 3 -13 62 -17 130 -5
68 -13 137 -20 152 -6 16 -11 73 -11 128 0 79 3 101 15 105 8 4 12 10 9 15 -3
5 16 9 41 9 28 0 44 -4 40 -10 -3 -5 0 -10 7 -10 8 0 20 -9 28 -20 8 -11 22
-20 30 -20 9 0 26 -9 37 -19 20 -19 67 -26 57 -9 -3 4 -12 5 -22 2 -9 -3 -6 2
8 10 16 10 19 15 10 16 -13 0 -13 1 0 11 12 8 11 9 -6 4 -29 -8 -41 22 -17 41
17 13 17 15 0 28 -18 14 -18 15 3 26 11 6 26 9 33 6 7 -2 3 -5 -8 -6 -19 -1
-19 -1 -2 -11 13 -8 22 -8 29 -1 13 13 2 32 -18 32 -8 0 -14 6 -14 14 0 8 -9
18 -21 21 -11 4 -18 9 -15 13 6 5 -39 71 -58 84 -6 4 -7 8 -3 8 12 0 -20 30
-32 30 -5 0 -13 9 -16 20 -3 11 -10 20 -15 20 -11 0 -50 86 -50 109 1 29 26
51 59 51 19 0 30 -4 26 -10 -4 -6 17 -10 55 -10 38 0 59 -4 55 -10 -4 -6 10
-10 34 -10 39 0 40 1 24 19 -9 11 -20 18 -25 15 -4 -3 -5 2 -2 10 4 10 1 16
-9 16 -34 0 -57 63 -29 80 15 8 14 9 -7 10 -31 0 -24 7 14 14 16 3 36 12 44
21 14 13 11 15 -26 15 -51 0 -100 19 -81 32 9 5 6 8 -9 8 -13 0 -23 5 -23 10
0 6 -12 10 -26 10 -14 0 -23 4 -19 10 3 6 -3 10 -15 10 -12 0 -18 5 -15 10 4
6 -5 10 -20 10 -14 0 -35 9 -47 20 -12 11 -28 20 -35 20 -7 0 -13 5 -13 10 0
6 -18 10 -40 10 -22 0 -40 5 -40 10 0 6 -13 10 -30 10 -16 0 -30 5 -30 10 0 6
-47 10 -120 10 -73 0 -120 -4 -120 -10z"/>
<path d="M3452 889 c-4 -4 -41 -10 -82 -13 -97 -7 -150 -16 -150 -26 0 -4 -12
-10 -27 -13 -68 -14 -90 -21 -118 -41 -36 -26 -37 -28 -41 -143 -4 -118 1
-125 94 -116 37 3 69 10 70 15 2 4 19 8 38 8 21 0 33 4 29 10 -4 6 9 10 32 10
28 0 34 3 23 10 -11 7 -1 10 35 10 36 0 46 3 35 10 -11 7 -6 10 20 10 26 0 31
3 20 10 -11 7 -5 10 25 10 26 0 35 3 27 9 -10 6 -8 10 10 15 19 5 20 8 8 16
-13 8 -12 10 5 11 l20 0 -20 9 -20 9 20 1 c11 1 14 4 8 7 -7 2 -13 13 -13 24
0 10 -5 19 -11 19 -6 0 -9 9 -6 20 3 11 0 20 -5 20 -6 0 -3 9 7 20 17 19 17
21 0 40 -17 19 -17 20 6 29 24 10 24 10 -4 8 -15 -1 -31 -4 -35 -8z"/>
</g>
</svg>
